<?xml version="1.0" encoding="UTF-8"?>
<svg width="36px" height="36px" viewBox="0 0 36 36" version="1.1" xmlns="http://www.w3.org/2000/svg" xmlns:xlink="http://www.w3.org/1999/xlink">
    <!-- Generator: Sketch 45.2 (43514) - http://www.bohemiancoding.com/sketch -->
    <title>globe</title>
    <desc>Created with Sketch.</desc>
    <defs></defs>
    <g id="Feed" stroke="none" stroke-width="1" fill="none" fill-rule="evenodd">
        <g id="Feed-a-01" transform="translate(-18.000000, -76.000000)" fill-rule="nonzero">
            <g id="globe" transform="translate(18.000000, 76.000000)">
                <path d="M36,18 C36,27.9413437 27.9413437,36 18,36 C8.05865625,36 0,27.9413437 0,18 C0,8.05865625 8.05865625,0 18,0 C27.9413437,0 36,8.05865625 36,18" id="Fill-3" fill="#FFFFFF"></path>
                <path d="M22.5002812,11.5164281 L23.7144375,9.08783437 C23.3029687,8.65864688 22.6825312,8.46233437 22.0463437,8.62967812 C21.5724375,8.75455313 21.1896562,9.10499062 20.9708437,9.54317813 L13.5,24.4843031 L10.1618437,17.8077094 C9.8758125,17.2362094 9.29165625,16.8750844 8.65265625,16.8750844 L0,16.8750844 L0,19.1250844 L8.30446875,19.1250844 L11.9669062,26.4493969 C12.2068125,26.9294906 12.643875,27.2993344 13.1709375,27.3988969 C13.9404375,27.5437406 14.673375,27.1688344 15.0094687,26.4969281 L22.5,11.5155844 L22.5002812,11.5164281 Z" id="Fill-5" fill="#E14E48"></path>
                <path d="M27.6954469,16.875 L24.3871031,10.258875 L23.1293531,12.774375 L25.8380719,18.192375 C26.1241031,18.763875 26.7082594,19.125 27.3475406,19.125 L35.9999156,19.125 L35.9999156,16.875 L27.6954469,16.875 Z" id="Fill-7" fill="#E14E48"></path>
            </g>
        </g>
    </g>
</svg>