<?xml version="1.0" encoding="UTF-8" standalone="no"?>
<svg width="33px" height="41px" viewBox="0 0 33 41" version="1.1" xmlns="http://www.w3.org/2000/svg" xmlns:xlink="http://www.w3.org/1999/xlink" xmlns:sketch="http://www.bohemiancoding.com/sketch/ns">
    <!-- Generator: sketchtool 3.5.1 (25234) - http://www.bohemiancoding.com/sketch -->
    <title>Rabbit Speech</title>
    <desc>Created with sketchtool.</desc>
    <defs></defs>
    <g id="Welcome" stroke="none" stroke-width="1" fill="none" fill-rule="evenodd" sketch:type="MSPage">
        <g id="Style-Guide" sketch:type="MSArtboardGroup" transform="translate(-372.000000, -1175.000000)">
            <g id="Rabbit-Speech" sketch:type="MSLayerGroup" transform="translate(369.000000, 1175.000000)">
                <g id="Group-6" transform="translate(3.000000, 1.000000)" sketch:type="MSShapeGroup">
                    <path d="M26.4545455,14 L24.8181818,15.625 L24.8181818,27 C24.8181818,27 16.6363636,27 16.6363636,36.75 C15.7330909,36.75 15,37.478 15,38.375 C15,39.272 15.7330909,40 16.6363636,40 L26.4545455,40 L26.4545455,38.375 L24.8181818,38.375 C24.8181818,36.75 24.8181818,35.125 26.4545455,35.125 C28.0909091,35.125 28.0909091,40 28.0909091,40 L29.7272727,40 L29.7272727,28.625 C29.7272727,28.625 29.7272727,27 31.3636364,27 C31.3636364,27 33,27 33,25.375 C33,23.75 31.3636364,20.5 26.4545455,20.5 L26.4545455,14 Z M29.7272727,23.75 L28.0909091,23.75 L28.0909091,22.125 L29.7272727,22.125 L29.7272727,23.75 L29.7272727,23.75 Z" id="Shape" fill="#E14E48"></path>
                    <g id="Bubble">
                        <path d="M6,7 C5.729166,7 5.494792,7.098958 5.296876,7.296876 C5.098958,7.494792 5,7.729166 5,8 C5,8.270834 5.098958,8.505208 5.296876,8.703124 C5.494792,8.901042 5.729166,9 6,9 C6.270834,9 6.505208,8.901042 6.703124,8.703124 C6.901042,8.505208 7,8.270834 7,8 C7,7.729166 6.901042,7.494792 6.703124,7.296876 C6.505208,7.098958 6.270834,7 6,7 L6,7 Z" id="Path" fill="#E14E48"></path>
                        <path d="M14,7 C13.729166,7 13.494792,7.098958 13.296876,7.296876 C13.098958,7.494792 13,7.729166 13,8 C13,8.270834 13.098958,8.505208 13.296876,8.703124 C13.494792,8.901042 13.729166,9 14,9 C14.270834,9 14.505208,8.901042 14.703124,8.703124 C14.901042,8.505208 15,8.270834 15,8 C15,7.729166 14.901042,7.494792 14.703124,7.296876 C14.505208,7.098958 14.270834,7 14,7 L14,7 Z" id="Path" fill="#E14E48"></path>
                        <path d="M10,7 C9.729166,7 9.494792,7.098958 9.296876,7.296876 C9.098958,7.494792 9,7.729166 9,8 C9,8.270834 9.098958,8.505208 9.296876,8.703124 C9.494792,8.901042 9.729166,9 10,9 C10.270834,9 10.505208,8.901042 10.703124,8.703124 C10.901042,8.505208 11,8.270834 11,8 C11,7.729166 10.901042,7.494792 10.703124,7.296876 C10.505208,7.098958 10.270834,7 10,7 L10,7 Z" id="Path" fill="#E14E48"></path>
                        <path d="M8.86261124,15.4176954 C8.49984191,15.3773877 8.14379267,15.3169274 7.79445838,15.236312 L4.75122547,17.0703125 L4.79153575,14.0673886 C4.2137877,13.7180543 3.68643395,13.3149798 3.20945645,12.8581575 C2.73247894,12.4013351 2.32604831,11.9042102 1.99014906,11.3667724 C1.65424981,10.8293347 1.39561133,10.2549557 1.21422589,9.64361746 C1.03284019,9.0322818 0.94214876,8.39744256 0.94214876,7.7390791 C0.94214876,6.66420099 1.17727462,5.65987747 1.64753357,4.72607761 C2.11779252,3.79227774 2.76271037,2.97269637 3.58230464,2.26730769 C4.40189633,1.561919 5.35919462,1.00769517 6.45422788,0.604615555 C7.54925856,0.201535939 8.72153041,0 9.97107438,0 C11.2206184,0 12.3928902,0.201535939 13.4879209,0.604615555 C14.5829541,1.00769517 15.5402524,1.561919 16.3598441,2.26730769 C17.1794384,2.97269637 17.8243565,3.79227774 18.2946139,4.72607761 C18.7648739,5.65987747 19,6.66420099 19,7.7390791 C19,8.81395722 18.7648739,9.81828073 18.2946139,10.7520806 C17.8243565,11.6858805 17.1794384,12.5054618 16.3598441,13.2108505 C15.5402524,13.9162392 14.5829541,14.470463 13.4879209,14.8735427 C12.3928902,15.2766223 11.2206184,15.4781582 9.97107438,15.4781582 C9.59486743,15.4781582 9.22538315,15.4580056 8.86261124,15.4176954 Z" id="Page-1" stroke="#E14E48" stroke-linecap="round" stroke-linejoin="round" transform="translate(9.971074, 8.535156) scale(-1, 1) translate(-9.971074, -8.535156) "></path>
                    </g>
                </g>
            </g>
        </g>
    </g>
</svg>