<?xml version="1.0" encoding="UTF-8" standalone="no"?>
<svg width="28px" height="28px" viewBox="0 0 28 28" version="1.1" xmlns="http://www.w3.org/2000/svg" xmlns:xlink="http://www.w3.org/1999/xlink" xmlns:sketch="http://www.bohemiancoding.com/sketch/ns">
    <!-- Generator: sketchtool 3.4.4 (395) - http://www.bohemiancoding.com/sketch -->
    <title>biz</title>
    <desc>Created with sketchtool.</desc>
    <defs></defs>
    <g id="Page-2" stroke="none" stroke-width="1" fill="none" fill-rule="evenodd" sketch:type="MSPage">
        <g id="loading" sketch:type="MSArtboardGroup" transform="translate(-173.000000, -145.000000)" stroke="#E14E48">
            <g id="biz" sketch:type="MSLayerGroup" transform="translate(173.000000, 145.000000)">
                <circle id="base" sketch:type="MSShapeGroup" cx="14" cy="14" r="13"></circle>
                <g id="Page-1" transform="translate(6.000000, 6.000000)" sketch:type="MSShapeGroup">
                    <path d="M8.84123333,0.529665306 C8.37856667,0.2384 7.62156667,0.2384 7.1589,0.529665306 L0.841233333,4.50746122 C0.378566667,4.79872653 0.4499,5.03709388 0.9999,5.03709388 L14.9999,5.03709388 C15.5499,5.03709388 15.6215667,4.79872653 15.1589,4.50746122 L8.84123333,0.529665306 L8.84123333,0.529665306 Z" id="Stroke-1" stroke-linejoin="round"></path>
                    <path d="M3.44076667,12.5644408 C3.44076667,13.1032163 3.01276667,13.5440327 2.48943333,13.5440327 C1.9661,13.5440327 1.5381,13.1032163 1.5381,12.5644408 L1.5381,6.87170612 C1.5381,6.33293061 1.9661,5.89211429 2.48943333,5.89211429 C3.01276667,5.89211429 3.44076667,6.33293061 3.44076667,6.87170612 L3.44076667,12.5644408 L3.44076667,12.5644408 Z" id="Stroke-3"></path>
                    <path d="M8.9512,12.5644408 C8.9512,13.1032163 8.52286667,13.5440327 7.99986667,13.5440327 C7.47653333,13.5440327 7.0482,13.1032163 7.0482,12.5644408 L7.0482,6.87170612 C7.0482,6.33293061 7.47653333,5.89211429 7.99986667,5.89211429 C8.52286667,5.89211429 8.9512,6.33293061 8.9512,6.87170612 L8.9512,12.5644408 L8.9512,12.5644408 Z" id="Stroke-5"></path>
                    <path d="M14.4616,12.5644408 C14.4616,13.1032163 14.0336,13.5440327 13.5102667,13.5440327 C12.9869333,13.5440327 12.5589333,13.1032163 12.5589333,12.5644408 L12.5589333,6.87170612 C12.5589333,6.33293061 12.9869333,5.89211429 13.5102667,5.89211429 C14.0336,5.89211429 14.4616,6.33293061 14.4616,6.87170612 L14.4616,12.5644408 L14.4616,12.5644408 Z" id="Stroke-7"></path>
                    <path d="M16,14.9668571 C16,15.3554286 15.55,15.6734694 15,15.6734694 L1,15.6734694 C0.45,15.6734694 0,15.3554286 0,14.9668571 C0,14.5782857 0.45,14.2602449 1,14.2602449 L15,14.2602449 C15.55,14.2602449 16,14.5782857 16,14.9668571 L16,14.9668571 Z" id="Stroke-9"></path>
                </g>
            </g>
        </g>
    </g>
</svg>