<?xml version="1.0" encoding="UTF-8" standalone="no"?>
<svg width="25px" height="23px" viewBox="0 0 25 23" version="1.1" xmlns="http://www.w3.org/2000/svg" xmlns:xlink="http://www.w3.org/1999/xlink" xmlns:sketch="http://www.bohemiancoding.com/sketch/ns">
    <!-- Generator: sketchtool 3.5.1 (25234) - http://www.bohemiancoding.com/sketch -->
    <title>cards</title>
    <desc>Created with sketchtool.</desc>
    <defs></defs>
    <g id="Page-2" stroke="none" stroke-width="1" fill="none" fill-rule="evenodd" sketch:type="MSPage">
        <g id="loading" sketch:type="MSArtboardGroup" transform="translate(-48.000000, -545.000000)" fill="#E14E48">
            <g id="cards" sketch:type="MSLayerGroup" transform="translate(48.000000, 545.000000)">
                <path d="M12.5,16.51425 C12.406,16.51425 12.312,16.48825 12.229,16.43425 L0.229,8.67725 C0.086,8.58525 0,8.42725 0,8.25725 C0,8.08725 0.086,7.92925 0.229,7.83725 L12.229,0.08025 C12.394,-0.02675 12.607,-0.02675 12.772,0.08025 L24.772,7.83725 C24.914,7.92925 25,8.08725 25,8.25725 C25,8.42725 24.914,8.58525 24.772,8.67725 L12.772,16.43425 C12.689,16.48825 12.595,16.51425 12.5,16.51425 L12.5,16.51425 Z M1.421,8.25725 L12.5,15.41925 L23.58,8.25725 L12.5,1.09525 L1.421,8.25725 L1.421,8.25725 Z" id="Fill-172" sketch:type="MSShapeGroup"></path>
                <path d="M12.5,19.36225 C12.406,19.36225 12.312,19.33525 12.229,19.28225 L0.229,11.52525 C-0.003,11.37525 -0.069,11.06525 0.081,10.83325 C0.23,10.60125 0.54,10.53525 0.772,10.68525 L12.5,18.26725 L24.229,10.68525 C24.461,10.53425 24.77,10.60125 24.92,10.83325 C25.07,11.06525 25.004,11.37525 24.772,11.52525 L12.772,19.28225 C12.689,19.33525 12.595,19.36225 12.5,19.36225" id="Fill-173" sketch:type="MSShapeGroup"></path>
                <path d="M12.5,22.16925 C12.406,22.16925 12.312,22.14225 12.229,22.08925 L0.229,14.33225 C-0.003,14.18225 -0.069,13.87225 0.081,13.64025 C0.23,13.40825 0.54,13.34225 0.772,13.49225 L12.5,21.07425 L24.229,13.49225 C24.461,13.34225 24.77,13.40825 24.92,13.64025 C25.07,13.87225 25.004,14.18225 24.772,14.33225 L12.772,22.08925 C12.689,22.14225 12.595,22.16925 12.5,22.16925" id="Fill-174" sketch:type="MSShapeGroup"></path>
            </g>
        </g>
    </g>
</svg>