<?xml version="1.0" encoding="UTF-8" standalone="no"?>
<svg width="59px" height="21px" viewBox="0 0 59 21" version="1.1" xmlns="http://www.w3.org/2000/svg" xmlns:xlink="http://www.w3.org/1999/xlink" xmlns:sketch="http://www.bohemiancoding.com/sketch/ns">
    <!-- Generator: Sketch 3.4.1 (15681) - http://www.bohemiancoding.com/sketch -->
    <title>Nerdy Glasses</title>
    <desc>Created with Sketch.</desc>
    <defs></defs>
    <g id="Icons" stroke="rgba(255, 255, 255, 0.7)" stroke-width="1" fill="rgba(255, 255, 255, 0.7)" fill-rule="evenodd" sketch:type="MSPage">
        <g id="Design-&amp;-Development" sketch:type="MSArtboardGroup" transform="translate(-790.000000, -890.000000)" fill="rgba(255, 255, 255, 0.7)">
            <g id="Nerdy-Glasses" sketch:type="MSLayerGroup" transform="translate(778.000000, 890.000000)">
                <g transform="translate(13.000000, 0.000000)" id="Fill-68" sketch:type="MSShapeGroup">
                    <path d="M23.213,5.18175 C17.215,3.59375 10.699,3.59375 4.701,5.18175 C4.263,5.29775 3.957,5.69375 3.957,6.14775 L3.957,8.24975 C3.957,8.31875 3.964,8.38775 3.979,8.45475 L5.269,14.60875 C5.56,15.98975 6.794,16.99175 8.206,16.99175 L19.708,16.99175 C21.12,16.99175 22.356,15.98975 22.644,14.60975 L23.936,8.45475 C23.95,8.38775 23.957,8.31875 23.957,8.24975 L23.957,6.14775 C23.957,5.69375 23.651,5.29775 23.213,5.18175 L23.213,5.18175 Z M21.957,8.14575 L20.687,14.19975 C20.59,14.65875 20.179,14.99175 19.708,14.99175 L8.206,14.99175 C7.735,14.99175 7.323,14.65775 7.227,14.19875 L5.957,8.14575 L5.957,6.92775 C11.163,5.67675 16.753,5.67675 21.957,6.92775 L21.957,8.14575 L21.957,8.14575 Z M53.213,5.18175 C47.215,3.59375 40.699,3.59375 34.701,5.18175 C34.263,5.29775 33.957,5.69375 33.957,6.14775 L33.957,8.24975 C33.957,8.31875 33.964,8.38775 33.979,8.45475 L35.269,14.60875 C35.56,15.98975 36.794,16.99175 38.206,16.99175 L49.708,16.99175 C51.12,16.99175 52.356,15.98975 52.644,14.60975 L53.936,8.45475 C53.95,8.38775 53.957,8.31875 53.957,8.24975 L53.957,6.14775 C53.957,5.69375 53.651,5.29775 53.213,5.18175 L53.213,5.18175 Z M51.957,8.14575 L50.687,14.19975 C50.59,14.65875 50.179,14.99175 49.708,14.99175 L38.206,14.99175 C37.735,14.99175 37.323,14.65775 37.227,14.19875 L35.957,8.14575 L35.957,6.92775 C41.164,5.67675 46.754,5.67675 51.957,6.92775 L51.957,8.14575 L51.957,8.14575 Z M57.253,2.21675 L55.846,1.77975 C48.19,-0.59325 39.725,-0.59325 32.068,1.77975 L31.362,1.99875 L26.551,1.99875 L25.846,1.77975 C18.19,-0.59325 9.725,-0.59325 2.068,1.77975 L0.661,2.21675 C0.242,2.34675 -0.043,2.73275 -0.043,3.17175 L-0.043,8.45675 C-0.043,8.52375 -0.036,8.59075 -0.023,8.65575 L1.354,15.42875 C2.03,18.64975 4.911,20.98775 8.206,20.98775 L19.708,20.98775 C23.003,20.98775 25.884,18.64975 26.559,15.42875 L27.697,9.99875 L30.249,9.99875 L31.354,15.42875 C32.03,18.64975 34.911,20.98775 38.206,20.98775 L49.708,20.98775 C53.003,20.98775 55.884,18.64975 56.559,15.42875 L57.893,9.07175 C57.906,9.00775 57.913,8.94075 57.914,8.87475 L57.957,3.17975 C57.96,2.73775 57.675,2.34775 57.253,2.21675 L57.253,2.21675 Z M55.915,8.75975 L54.602,15.01875 C54.12,17.31775 52.062,18.98775 49.708,18.98775 L38.206,18.98775 C35.852,18.98775 33.794,17.31775 33.312,15.02375 L32.046,8.79975 C31.951,8.33375 31.542,7.99875 31.066,7.99875 L26.886,7.99875 C26.412,7.99875 26.004,8.33075 25.907,8.79375 L24.602,15.01875 C24.12,17.31775 22.062,18.98775 19.708,18.98775 L8.206,18.98775 C5.852,18.98775 3.794,17.31775 3.312,15.02375 L1.957,8.35575 L1.957,3.90775 L2.66,3.68975 C9.934,1.43775 17.981,1.43775 25.253,3.68975 L26.102,3.95375 C26.199,3.98275 26.299,3.99875 26.399,3.99875 L31.514,3.99875 C31.614,3.99875 31.714,3.98375 31.81,3.95375 L32.66,3.68975 C39.934,1.43775 47.981,1.43775 55.254,3.68975 L55.951,3.90675 L55.915,8.75975 L55.915,8.75975 Z"></path>
                </g>
            </g>
        </g>
    </g>
</svg>
