<?xml version="1.0" encoding="UTF-8" standalone="no"?>
<svg width="21px" height="30px" viewBox="0 0 21 30" version="1.1" xmlns="http://www.w3.org/2000/svg" xmlns:xlink="http://www.w3.org/1999/xlink" xmlns:sketch="http://www.bohemiancoding.com/sketch/ns">
    <!-- Generator: Sketch 3.4.4 (17249) - http://www.bohemiancoding.com/sketch -->
    <title>Rabbit</title>
    <desc>Created with Sketch.</desc>
    <defs></defs>
    <g id="Welcome" stroke="none" stroke-width="1" fill="none" fill-rule="evenodd" sketch:type="MSPage">
        <g id="Guide" sketch:type="MSArtboardGroup" transform="translate(-366.000000, -1174.000000)" fill="#e14e48">
            <g id="Rabbit" sketch:type="MSLayerGroup" transform="translate(366.000000, 1174.000000)">
                <path d="M13.3269231,0 L11.4230769,1.875 L11.4230769,15 C11.4230769,15 1.90384615,15 1.90384615,26.25 C0.852923077,26.25 0,27.09 0,28.125 C0,29.16 0.852923077,30 1.90384615,30 L13.3269231,30 L13.3269231,30 C13.3269231,28.9644661 11.4230769,28.125 11.4230769,28.125 L11.4230769,28.125 C11.4230769,26.25 11.4230769,24.375 13.3269231,24.375 C15.2307692,24.375 15.2307692,30 15.2307692,30 L17.1346154,30 L17.1346154,16.875 C17.1346154,16.875 17.1346154,15 19.0384615,15 C19.0384615,15 20.9423077,15 20.9423077,13.125 C20.9423077,11.25 19.0384615,7.5 13.3269231,7.5 L13.3269231,0 Z M17.1346154,11.25 L15.2307692,11.25 L15.2307692,9.375 L17.1346154,9.375 L17.1346154,11.25 L17.1346154,11.25 L17.1346154,11.25 Z" id="rabbit" sketch:type="MSShapeGroup"></path>
            </g>
        </g>
    </g>
</svg>
