<?xml version="1.0" encoding="UTF-8" standalone="no"?>
<svg width="19px" height="27px" viewBox="0 0 19 27" version="1.1" xmlns="http://www.w3.org/2000/svg" xmlns:xlink="http://www.w3.org/1999/xlink" xmlns:sketch="http://www.bohemiancoding.com/sketch/ns">
    <!-- Generator: Sketch 3.5.1 (25234) - http://www.bohemiancoding.com/sketch -->
    <title>Share</title>
    <desc>Created with Sketch.</desc>
    <defs></defs>
    <g id="Page-1" stroke="none" stroke-width="1" fill="none" fill-rule="evenodd" sketch:type="MSPage">
        <g id="Background" sketch:type="MSArtboardGroup" transform="translate(-1212.000000, -3533.000000)" fill="#007AFF">
            <g id="Controls" sketch:type="MSLayerGroup" transform="translate(486.000000, 3456.000000)">
                <path d="M734.995434,79.0663156 L731.257614,82.8902261 L730.5,82.115162 L735.5,77 L740.5,82.115162 L739.742386,82.8902261 L739.742386,82.8902261 L736.005586,79.0673595 L736.005586,94 L734.995434,94 L734.995434,79.0663156 L734.995434,79.0663156 Z M739.349242,85 L745,85 L745,104 L726,104 L726,85 L732.062378,85 L732.062378,86 L726,86 L727,85 L727,104 L726,103 L745,103 L744,104 L744,85 L745,86 L738.999878,86 L738.999878,85.3493645 L739.349242,85 L739.349242,85 L739.349242,85 Z" id="Share" sketch:type="MSShapeGroup"></path>
            </g>
        </g>
    </g>
</svg>