<?xml version="1.0" encoding="UTF-8" standalone="no"?>
<svg width="22px" height="25px" viewBox="0 0 22 25" version="1.1" xmlns="http://www.w3.org/2000/svg" xmlns:xlink="http://www.w3.org/1999/xlink" xmlns:sketch="http://www.bohemiancoding.com/sketch/ns">
    <!-- Generator: sketchtool 3.5.1 (25234) - http://www.bohemiancoding.com/sketch -->
    <title>rabbit</title>
    <desc>Created with sketchtool.</desc>
    <defs>
        <path id="path-1" d="M0,0.555076923 L19.6539394,0.555076923 L19.6539394,24 L0,24"></path>
    </defs>
    <g id="Page-2" stroke="none" stroke-width="1" fill="none" fill-rule="evenodd" sketch:type="MSPage">
        <g id="loading" sketch:type="MSArtboardGroup" transform="translate(-308.000000, -545.000000)">
            <g id="rabbit" sketch:type="MSLayerGroup" transform="translate(309.000000, 545.000000)">
                <g id="Group-3">
                    <mask id="mask-2" sketch:name="Clip 2" fill="white">
                        <use xlink:href="#path-1"></use>
                    </mask>
                    <g id="Clip-2"></g>
                    <path d="M9.63545455,0.559507692 C11.1469697,0.591507692 13.0390909,1.57427692 13.8263636,2.46350769 C13.8433333,2.4832 13.8190909,2.51212308 13.7966667,2.49796923 C12.9724242,1.98227692 11.8881818,1.54843077 10.5972727,1.40996923 C9.05484848,1.24504615 7.56515152,1.35273846 6.88636364,1.51027692 C6.77606061,1.53550769 6.66636364,1.4032 6.74030303,1.31643077 C7.36030303,0.582276923 9.06636364,0.534892308 9.63545455,0.559507692" id="Fill-1" fill="#E14E48" sketch:type="MSShapeGroup" mask="url(#mask-2)"></path>
                </g>
                <path d="M17.2333797,5.94141538 C17.0382282,5.96664615 16.8600464,5.82633846 16.835804,5.62818462 C16.8109555,5.43064615 16.9485312,5.24972308 17.1436828,5.22449231 C17.3388343,5.19926154 17.5170161,5.33956923 17.5418646,5.53772308 C17.566107,5.73526154 17.4285312,5.91618462 17.2333797,5.94141538 M19.6351979,6.52603077 C19.0418646,6.13464615 18.8891373,5.44049231 18.5242888,4.8928 C17.7551979,3.73587692 16.6339858,3.3408 15.3170161,3.44418462 C14.7812585,3.48603077 14.3188343,3.44356923 13.8976222,3.0368 C13.6248949,2.77403077 13.2618646,2.59618462 12.9176222,2.42387692 C11.9394403,1.93403077 10.8915615,1.72603077 9.806107,1.68172308 C8.48065246,1.62818462 7.18065246,1.75495385 5.95398579,2.29710769 C5.60428882,2.45218462 5.31034943,2.78756923 5.4630767,3.20172308 C5.5491373,3.43372308 5.86368276,3.71187692 6.08065246,3.73526154 C6.94368276,3.90510769 7.73762215,3.72233846 8.55701609,3.6208 C9.43398579,3.51126154 10.2933797,3.23310769 11.1715615,3.15803077 C11.9842888,3.08910769 12.8042888,3.22572308 13.5170161,3.68972308 C13.6545918,3.77895385 13.7212585,3.97956923 13.6630767,4.13403077 C13.4873191,4.59987692 13.2903494,5.06018462 13.0612585,5.50141538 C12.9194403,5.77526154 12.7388343,6.04910769 12.5127737,6.25218462 C11.9315615,6.77526154 11.2624706,6.47310769 10.6412585,6.35372308 C8.83641003,6.00664615 7.06004639,5.55187692 5.23822821,6.90387692 C4.1030767,7.74633846 3.36368276,9.0288 3.10186458,10.4318769 C3.04125852,10.7580308 2.98550094,11.0848 2.91701609,11.4048 C2.91156155,11.4318769 2.88065246,11.4448 2.85762215,11.4294154 C2.24550094,11.0349538 1.55398579,10.7580308 0.73519791,11.2337231 C-0.0429839083,11.6854154 -0.263589969,12.8608 0.366713061,13.4780308 C0.907319122,14.0078769 1.8830767,14.1032615 2.60065246,13.7549538 C2.81580397,13.6503385 3.22550094,13.5814154 3.33883427,13.7001846 C3.95337973,14.3444923 4.71398579,14.5204923 5.53883427,14.5820308 C6.17095549,14.6294154 6.80550094,14.6694154 7.43216761,14.7604923 C7.92368276,14.8312615 8.146107,15.2189538 7.97277367,15.6872615 C7.86489488,15.9789538 6.20489488,19.1537231 7.25580397,19.0915692 C8.05459185,19.0441846 9.09216761,18.9155692 10.0788343,18.9315692 C11.1800464,18.9494154 7.29883427,23.9998769 7.29883427,23.9998769 C7.29883427,23.9998769 10.566107,22.3838769 12.9388343,20.9481846 C13.6636828,20.5094154 14.3048949,20.0872615 14.7436828,19.7340308 C15.0873191,19.4571077 15.3067131,19.2220308 15.346107,19.0534154 C15.4836828,18.4558769 14.6351979,17.4768 13.3982282,16.9734154 C12.3751979,16.5568 10.9551979,16.5629538 10.7715615,16.5131077 C10.7418646,16.5044923 10.7309555,16.4669538 10.7521676,16.4448 C11.7321676,15.4220308 12.4121676,14.4257231 12.386107,13.0306462 C12.3606525,11.6232615 11.7994403,10.5746462 10.6515615,9.77587692 C10.8739858,9.74264615 11.0630767,9.73956923 11.2279252,9.80233846 C12.5576222,10.3112615 13.2915615,11.4017231 13.2648949,12.8749538 C13.2521676,13.5814154 13.1806525,14.2872615 13.1230767,15.1364923 C13.1206525,15.1740308 13.1679252,15.1961846 13.1939858,15.1684923 C15.0527737,13.1752615 15.4479252,10.8404923 15.2412585,8.2928 C15.3545918,8.32418462 15.4036828,8.33403077 15.4497434,8.35126154 C17.5085312,9.12295385 18.786107,8.56172308 19.6503494,6.57649231 C19.6582282,6.55803077 19.6515615,6.53649231 19.6351979,6.52603077" id="Fill-4" stroke="#E14E48" fill="#E14E48" stroke-width="0.923076923" sketch:type="MSShapeGroup"></path>
            </g>
        </g>
    </g>
</svg>