<?xml version="1.0" encoding="UTF-8" standalone="no"?>
<svg width="28px" height="28px" viewBox="0 0 28 28" version="1.1" xmlns="http://www.w3.org/2000/svg" xmlns:xlink="http://www.w3.org/1999/xlink" xmlns:sketch="http://www.bohemiancoding.com/sketch/ns">
    <!-- Generator: sketchtool 3.4.4 (395) - http://www.bohemiancoding.com/sketch -->
    <title>run</title>
    <desc>Created with sketchtool.</desc>
    <defs></defs>
    <g id="Page-2" stroke="none" stroke-width="1" fill="none" fill-rule="evenodd" sketch:type="MSPage">
        <g id="loading" sketch:type="MSArtboardGroup" transform="translate(-45.000000, -145.000000)" stroke="#E14E48">
            <g id="run" sketch:type="MSLayerGroup" transform="translate(45.000000, 145.000000)">
                <circle id="base" sketch:type="MSShapeGroup" cx="14" cy="14" r="13"></circle>
                <path d="M11.1787142,8.82246438 C11.1787142,9.83012015 10.3768536,10.6457111 9.38787945,10.6457111 C8.39890525,10.6457111 7.59742889,9.83012015 7.59742889,8.82246438 C7.59742889,7.81598212 8.39890525,7 9.38787945,7 C10.3768536,7 11.1787142,7.81598212 11.1787142,8.82246438 L11.1787142,8.82246438 Z M21.4034933,19.5413244 C16.7905857,18.715563 16.392537,14.7408773 16.3721735,14.4952221 L16.1274274,13.6890193 L13.3111178,10.6284996 C13.8824483,10.0409612 14.7031355,9.40178821 15.1999279,9.53048338 C15.6010503,9.63453479 15.9422348,10.3578094 16.1354959,11.5137189 C16.2023496,11.9134954 16.57504,12.1841855 16.9680938,12.1149483 C17.3607635,12.0468846 17.6251047,11.6670578 17.5582509,11.2668902 C17.2516459,9.43582006 16.578498,8.37261805 15.5572495,8.10662196 C13.7959995,7.64973456 11.9648219,9.92869517 11.7619554,10.1903884 L11.7193073,10.2451523 L10.8648091,11.9174071 L10.8790251,12.1239452 C10.9224416,12.7572506 10.8755671,13.5818385 10.407591,13.9139424 C9.76018558,14.3731769 8.43310055,13.9378039 8.01891478,13.7480861 C7.6569825,13.5810562 7.22934914,13.7449567 7.06490432,14.1134395 C6.90007529,14.4830958 7.0599095,14.91886 7.42299443,15.0870634 C7.57975491,15.1590388 8.552592,15.5889355 9.60803571,15.5889355 C10.1609238,15.5889355 10.7360964,15.4704107 11.2290466,15.1222688 C11.7723293,14.7389215 12.1162034,14.1537301 12.259132,13.3780386 L13.7003295,15.0021794 C12.4669934,15.5889355 11.2417258,16.4412965 11.3154954,17.6754401 C11.4276867,19.5526683 14.6358975,20.5399832 15.6168032,20.7985471 C16.0033253,20.8998603 16.3959949,20.6635932 16.4955071,20.271249 C16.5957877,19.8785136 16.3637207,19.4775636 15.977967,19.375468 C14.4841319,18.9807768 12.7885829,18.131154 12.7559244,17.585862 C12.7543876,17.5596535 12.7451664,16.9341716 15.099263,15.9918413 C15.1422953,15.975021 15.1834065,15.9538977 15.2218282,15.9284716 C15.7485895,17.588209 17.2024661,20.2814194 21.1529839,20.9890472 C21.1956319,20.9960883 21.2375116,21 21.279007,21 C21.6228811,21 21.9275651,20.7492596 21.9890398,20.3925119 C22.0578146,19.9927354 21.7957787,19.611344 21.4034933,19.5413244 L21.4034933,19.5413244 Z" id="Imported-Layers" sketch:type="MSShapeGroup"></path>
            </g>
        </g>
    </g>
</svg>