<?xml version="1.0" encoding="UTF-8" standalone="no"?>
<svg width="26px" height="26px" viewBox="0 0 26 26" version="1.1" xmlns="http://www.w3.org/2000/svg" xmlns:xlink="http://www.w3.org/1999/xlink" xmlns:sketch="http://www.bohemiancoding.com/sketch/ns">
    <!-- Generator: sketchtool 3.5.1 (25234) - http://www.bohemiancoding.com/sketch -->
    <title>story</title>
    <desc>Created with sketchtool.</desc>
    <defs></defs>
    <g id="Page-2" stroke="none" stroke-width="1" fill="none" fill-rule="evenodd" sketch:type="MSPage">
        <g id="loading" sketch:type="MSArtboardGroup" transform="translate(-176.000000, -544.000000)" stroke="#E14E48">
            <g id="story" sketch:type="MSLayerGroup" transform="translate(177.000000, 545.000000)">
                <path d="M5.22655,5.78225 L18.77205,5.78225" id="Stroke-1" sketch:type="MSShapeGroup"></path>
                <path d="M5.22655,9.938 L18.77205,9.938" id="Stroke-2" sketch:type="MSShapeGroup"></path>
                <path d="M5.22655,14.09375 L18.77205,14.09375" id="Stroke-3" sketch:type="MSShapeGroup"></path>
                <path d="M21.2881,0 L2.7111,0 C1.2191,0 9.99999999e-05,1.2195 9.99999999e-05,2.711 L9.99999999e-05,8.318 L9.99999999e-05,21.289 L9.99999999e-05,24 L5.7051,20.5145 L11.9281,24 L18.3311,20.5145 L23.9991,24 L23.9991,21.289 L23.9991,8.318 L23.9991,2.711 C23.9991,1.2195 22.7791,0 21.2881,0 L21.2881,0 Z" id="Stroke-4" stroke-linejoin="round" sketch:type="MSShapeGroup"></path>
            </g>
        </g>
    </g>
</svg>