<?xml version="1.0" encoding="UTF-8" standalone="no"?>
<svg width="206px" height="200px" viewBox="0 0 206 200" version="1.1" xmlns="http://www.w3.org/2000/svg" xmlns:xlink="http://www.w3.org/1999/xlink">
    <!-- Generator: Sketch 3.6.1 (26313) - http://www.bohemiancoding.com/sketch -->
    <title>fist-red-stroke</title>
    <desc>Created with Sketch.</desc>
    <defs></defs>
    <g id="Page-1" stroke="none" stroke-width="1" fill="none" fill-rule="evenodd" stroke-linecap="round">
        <g id="Black-Red" transform="translate(-297.000000, -158.000000)" stroke="#ffffff" stroke-width="7">
            <g id="Group" transform="translate(224.000000, 161.000000)">
                <g id="fist-red-stroke" transform="translate(76.000000, 0.000000)">
                    <path d="M163.044085,51.7722739 C165.344085,61.5271 154.606056,69.5837232 150.69338,77.2776507 C146.558169,85.4087812 145.408873,95.0427087 142.360986,103.585738 C139.06662,112.819013 131.653944,120.216317 129.691972,129.96552 C127.587746,140.421839 131.941268,150.487346 140.931408,156.287665 C160.851127,169.140868 177.224366,148.859433 183.43,131.052201 C188.965211,115.169506 188.215915,97.6912304 194.360986,82.0559551 C201.310282,64.3752449 202.660986,41.5422884 183.245493,31.6637522 C173.34831,26.628187 160.563385,31.6637524 155.572254,25.0115203 C150.581122,18.3592882 140.508873,6.62228841 127.659577,9.59695507 C115.165211,12.4900855 112.090563,15.0345783 100.589155,7.46154928 C87.6370423,-1.06742174 79.8792958,0.831810145 65.5032394,4.89878116 C55.7849296,7.64852029 54.4102817,1.08204203 45.1187324,0.920375362 C32.7778873,0.7081 28.7638028,11.9980565 20.1891549,18.3916217 C10.6384507,25.5119841 5.71591549,29.9683609 6.37647887,42.6121 C6.86521127,51.938158 4.81873239,60.9338536 3.14549296,70.1123029 C1.54126761,78.9055638 -0.184084507,87.8815783 1.2243662,96.856187 C3.32295775,110.233752 20.7412676,119.126825 33.386338,113.92397" id="Stroke-1"></path>
                    <path d="M58.6195775,28.9876768 C61.4294366,41.873213 54.0984507,53.6931551 49.0590141,65.1475899 C44.8576056,74.6957638 39.7519718,84.0386913 36.5829577,94.0015754 C32.9857746,105.312619 30.1294366,120.973199 41.274507,129.0003 C51.8773239,136.63659 69.7421127,136.036314 79.8561972,127.791314" id="Stroke-3"></path>
                    <path d="M104.27493,42.0767725 C108.550986,49.1887 106.72,54.0274536 102.466479,60.1932797 C98.1326761,66.4771928 96.4383099,70.0971203 95.3129577,77.4606855 C93.4833803,89.4338594 90.0016901,99.3812797 85.0833803,110.186236 C82.3467606,116.197425 79.4904225,123.220787 79.8932394,129.941903 C80.4228169,138.791396 86.291831,141.40899 93.7960563,144.55657 C106.686197,149.963265 119.287606,152.018541 129.642535,140.464294" id="Stroke-5"></path>
                    <path d="M170.918028,151.637148 C172.772958,161.486162 173.675775,169.316452 168.584225,178.515988 C164.658873,185.609641 157.93493,191.876684 149.668732,193.092699 C142.019437,194.217336 136.61662,190.434336 129.641972,188.480278 C118.395493,185.331293 105.239155,188.530887 95.7940845,179.291988 C85.9194366,169.631351 90.9405634,155.38922 99.8969014,146.975525" id="Stroke-7"></path>
                </g>
            </g>
        </g>
    </g>
</svg>
